<svg width="24" height="24" viewBox="0 0 24 24" fill="none" xmlns="http://www.w3.org/2000/svg">
<path fill-rule="evenodd" clip-rule="evenodd" d="M18.8476 8.08438C19.2254 8.08438 19.6032 8.2355 19.8676 8.49996C20.0943 8.76442 20.2832 9.10444 20.2832 9.52003V14.0536C20.2832 14.4314 20.0943 14.8092 19.8676 15.0737H19.8299C19.6032 15.3382 19.2254 15.4893 18.8476 15.4893C18.4698 15.4893 18.092 15.3382 17.8275 15.0737V15.0359C17.563 14.7715 17.4119 14.4314 17.4119 14.0536V9.52003C17.4119 9.10444 17.6008 8.76442 17.8275 8.49996C18.092 8.2355 18.4698 8.08438 18.8476 8.08438Z" fill="#0E0D25"/>
<path fill-rule="evenodd" clip-rule="evenodd" d="M5.43564 8.08438C5.81344 8.08438 6.15347 8.2355 6.41793 8.49996C6.68239 8.76442 6.83351 9.10444 6.83351 9.52003V14.0536C6.83351 14.4314 6.68239 14.8092 6.41793 15.0737C6.15347 15.3382 5.81344 15.4893 5.43564 15.4893C5.02006 15.4893 4.68004 15.3382 4.41558 15.0737C4.15112 14.8092 4 14.4692 4 14.0536V9.52003C4 9.10444 4.15112 8.76442 4.41558 8.49996C4.68004 8.2355 5.02006 8.08438 5.43564 8.08438Z" fill="#0E0D25"/>
<path fill-rule="evenodd" clip-rule="evenodd" d="M17.223 8.46218V8.49996V15.716C17.223 16.1693 17.0341 16.5849 16.7319 16.8871C16.4674 17.1516 16.0518 17.3405 15.5985 17.3405H15.4851V19.7584C15.4851 20.1362 15.2962 20.4763 15.0696 20.7407H15.0318C14.8051 21.0052 14.4273 21.1563 14.0495 21.1563C13.6717 21.1563 13.2939 21.0052 13.0294 20.7407C12.765 20.4763 12.6139 20.1362 12.6139 19.7584V17.3405H11.6316V19.7584C11.6316 20.1362 11.4805 20.514 11.216 20.7407C10.9515 21.0052 10.6115 21.1563 10.2337 21.1563C9.81813 21.1563 9.47811 21.0052 9.21365 20.7407C8.94919 20.4763 8.79807 20.1362 8.79807 19.7584V17.3405H8.68473C8.23136 17.3405 7.81578 17.1516 7.51354 16.8871V16.8494C7.2113 16.5471 7.06018 16.1693 7.06018 15.716V8.46218C7.06018 8.27328 7.2113 8.08438 7.43798 8.08438H16.8452C17.0719 8.08438 17.223 8.27328 17.223 8.46218Z" fill="#0E0D25"/>
<path fill-rule="evenodd" clip-rule="evenodd" d="M12.1227 2.79517C12.8028 2.79517 13.4828 2.94629 14.0873 3.17297L14.8807 2.15291C14.994 1.96401 15.2207 1.96401 15.4096 2.07735C15.5607 2.19069 15.5985 2.45515 15.4851 2.60627L14.7673 3.51299C15.0318 3.70189 15.2962 3.89079 15.5607 4.11748C16.4674 4.94864 17.0719 6.08204 17.1852 7.40434C17.223 7.59325 17.0719 7.78215 16.883 7.78215H16.8452V7.81993H7.43798C7.24908 7.81993 7.06018 7.63103 7.06018 7.44212C7.06018 7.40434 7.06018 7.36656 7.06018 7.36656C7.2113 6.08204 7.81578 4.94864 8.72251 4.11748C8.91141 3.96636 9.10031 3.81523 9.28921 3.66411L8.49582 2.60627C8.3447 2.45515 8.38248 2.19069 8.5336 2.07735C8.72251 1.96401 8.94919 1.96401 9.06253 2.15291L9.96925 3.28631C10.6115 2.98407 11.3671 2.79517 12.1227 2.79517ZM10.4982 4.94864C10.8382 4.94864 11.1027 5.2131 11.1027 5.55312C11.1027 5.89314 10.8382 6.1576 10.4982 6.1576C10.1581 6.1576 9.85591 5.89314 9.85591 5.55312C9.85591 5.2131 10.1581 4.94864 10.4982 4.94864ZM13.785 4.94864C14.1251 4.94864 14.3895 5.2131 14.3895 5.55312C14.3895 5.89314 14.1251 6.1576 13.785 6.1576C13.445 6.1576 13.1806 5.89314 13.1806 5.55312C13.1806 5.2131 13.445 4.94864 13.785 4.94864Z" fill="#0E0D25"/>
</svg>
