<svg width="40" height="40" viewBox="0 0 40 40" fill="none" xmlns="http://www.w3.org/2000/svg">
<circle cx="20" cy="20" r="20" fill="#0E0D25"/>
<g clip-path="url(#clip0_2_544)">
<path d="M26.2818 23.062C26.3653 23.2627 26.3458 23.4915 26.2294 23.6751C24.5586 26.3117 21.3126 27.6815 18.1367 26.8305C14.2246 25.7822 11.903 21.7611 12.9513 17.849C13.8022 14.6731 16.6116 12.5469 19.7304 12.4182C19.9476 12.4093 20.1555 12.5067 20.2875 12.6794C20.4195 12.8521 20.4591 13.0783 20.3935 13.2855C20.36 13.3912 20.3287 13.4982 20.2997 13.6064C19.2515 17.5185 21.5731 21.5397 25.4852 22.5879C25.5934 22.6169 25.7017 22.6433 25.8099 22.6672C26.0222 22.714 26.1983 22.8613 26.2818 23.062Z" fill="white"/>
</g>
<defs>
<clipPath id="clip0_2_544">
<rect width="16" height="16" fill="white" transform="translate(12 12.0017)"/>
</clipPath>
</defs>
</svg>
